<svg xmlns="http://www.w3.org/2000/svg" xmlns:xlink="http://www.w3.org/1999/xlink" version="1.1" x="0px" y="0px" viewBox="0 0 100 125" style="enable-background:new 0 0 100 100;" xml:space="preserve"><style type="text/css">
	.st0{fill-rule:evenodd;clip-rule:evenodd;}
</style><path class="st0" d="M91.2,79.6L84.9,76l-6.1,10.5c-1.3,2.3-4.3,3.1-6.6,1.8c-2.3-1.3-3.1-4.3-1.8-6.6l-3.6,6.3  c-1.7,2.9-5.4,3.9-8.3,2.2s-3.9-5.4-2.2-8.3L66,65L30.2,44.4l-9.7,16.8c-1.7,2.9-5.4,3.9-8.3,2.2C9.3,61.8,8.3,58,10,55.1l3.6-6.3  c-1.3,2.3-4.3,3.1-6.6,1.8c-2.3-1.3-3.1-4.3-1.8-6.6l6.1-10.5l-6.3-3.6c-2.3-1.3-3.1-4.3-1.8-6.6c1.3-2.3,4.3-3.1,6.6-1.8l6.3,3.6  l6.1-10.5c1.3-2.3,4.3-3.1,6.6-1.8c2.3,1.3,3.1,4.3,1.8,6.6l3.6-6.3c1.7-2.9,5.4-3.9,8.3-2.2c2.9,1.7,3.9,5.4,2.2,8.3L35,36  l35.8,20.6l9.7-16.8c1.7-2.9,5.4-3.9,8.3-2.2s3.9,5.4,2.2,8.3l-3.6,6.3c1.3-2.3,4.3-3.1,6.6-1.8c2.3,1.3,3.1,4.3,1.8,6.6l-6.1,10.5  l6.3,3.6c2.3,1.3,3.1,4.3,1.8,6.6C96.5,80.2,93.5,80.9,91.2,79.6z"/><text x="0" y="115" fill="#000000" font-size="5px" font-weight="bold" font-family="'Helvetica Neue', Helvetica, Arial-Unicode, Arial, Sans-serif">Created by Rohith M S</text><text x="0" y="120" fill="#000000" font-size="5px" font-weight="bold" font-family="'Helvetica Neue', Helvetica, Arial-Unicode, Arial, Sans-serif">from the Noun Project</text></svg>