<?xml version="1.0" encoding="utf-8"?>
<!-- Generator: Adobe Illustrator 22.0.0, SVG Export Plug-In . SVG Version: 6.00 Build 0)  -->
<svg version="1.1" id="Layer_1" xmlns="http://www.w3.org/2000/svg" xmlns:xlink="http://www.w3.org/1999/xlink" x="0px" y="0px"
	 viewBox="0 0 300 300" style="enable-background:new 0 0 300 300;" xml:space="preserve">
<style type="text/css">
	.st0{fill:#A6032F;}
</style>
<path class="st0" d="M145.6,19.1c-52.5,0-95.3,42.8-95.3,95.3c0,57.2,56.2,101.1,90.5,144.3c2.4,3.1,7.1,3,9.5-0.1
	c33.5-44.3,91.7-91,91.7-144.2C242,62,199.2,19.1,145.6,19.1z M216.1,119.4l-10.2,0l0,17c0,3.7-3,6.8-6.7,6.8c-3.7,0-6.8-3-6.8-6.7
	l0,10.2c0,4.7-3.8,8.5-8.5,8.5c-4.7,0-8.5-3.8-8.5-8.5l0-27.2l-57.8,0.1l0,27.2c0,4.7-3.8,8.5-8.5,8.5c-4.7,0-8.5-3.8-8.5-8.5
	l0-10.2c0,3.7-3,6.8-6.7,6.8c-3.7,0-6.8-3-6.8-6.7l0-17l-10.2,0c-3.7,0-6.8-3-6.8-6.7c-0.2-3.9,3-6.9,6.7-6.9l10.2,0l0-17
	c0-3.7,3-6.8,6.7-6.8c3.7,0,6.8,3,6.8,6.7l0-10.2c0-4.7,3.8-8.5,8.5-8.5c4.7,0,8.5,3.8,8.5,8.5l0.1,26.3l57.8-0.1l0-26.2
	c0-4.7,3.8-8.5,8.5-8.5c4.6-0.1,8.5,3.8,8.5,8.5l0,10.2c0-3.7,3-6.8,6.7-6.8c3.7,0,6.8,3,6.8,6.7l0,17l10.2,0c3.7,0,6.8,3,6.8,6.7
	C222.8,116.3,219.8,119.4,216.1,119.4z"/>
</svg>
